<svg width="400" height="400" viewBox="0 0 400 400" fill="none" xmlns="http://www.w3.org/2000/svg">
<path fill-rule="evenodd" clip-rule="evenodd" d="M199.975 390.404C305.146 390.404 390.404 305.147 390.404 199.976C390.404 94.8048 305.146 9.54706 199.975 9.54706C94.8048 9.54706 9.54703 94.8048 9.54703 199.976C9.54703 305.147 94.8048 390.404 199.975 390.404ZM199.975 394.197C307.24 394.197 394.197 307.241 394.197 199.976C394.197 92.7098 307.24 5.75366 199.975 5.75366C92.7098 5.75366 5.75363 92.7098 5.75363 199.976C5.75363 307.241 92.7098 394.197 199.975 394.197Z" fill="#AEDDFF"/>
<path d="M290.593 41.7301C296.752 41.7301 301.746 36.7368 301.746 30.5774C301.746 24.4179 296.752 19.4247 290.593 19.4247C284.433 19.4247 279.44 24.4179 279.44 30.5774C279.44 36.7368 284.433 41.7301 290.593 41.7301Z" fill="#1697F6"/>
<path d="M109.358 380.534C115.517 380.534 120.511 375.541 120.511 369.381C120.511 363.222 115.517 358.229 109.358 358.229C103.198 358.229 98.2051 363.222 98.2051 369.381C98.2051 375.541 103.198 380.534 109.358 380.534Z" fill="#1697F6"/>
<path d="M203.087 172.693L144.963 273.389L200 368.773L272.896 242.513L345.759 116.253H235.651L203.087 172.693Z" fill="#1697F6"/>
<path d="M127.137 242.513L130.955 249.153L185.328 154.931L207.668 116.253H200H54.2415L127.137 242.513Z" fill="#AEDDFF"/>
<path d="M235.651 116.253C263.203 206.922 200 368.773 200 368.773L144.963 273.389L235.651 116.253Z" fill="#1867C0"/>
<path d="M207.668 116.253C91.5861 116.253 130.955 249.153 130.955 249.153L207.668 116.253Z" fill="#7BC6FF"/>
</svg>
